<svg xmlns="http://www.w3.org/2000/svg" version="1.0" preserveAspectRatio="xMidYMid meet" viewBox="4.22 2.28 292.22 326.13" width= "80px" height= "70px">
<metadata>
Created by potrace 1.10, written by Peter Selinger 2001-2011
</metadata>
<g transform="translate(0.000000,331.000000) scale(0.100000,-0.100000)" fill="#000000" stroke="none">
<path d="M799 3277 c-99 -37 -173 -111 -230 -230 -78 -163 -111 -358 -112 -665 l0 -212 -76 -47 c-82 -51 -146 -105 -162 -135 -8 -15 -7 -24 6 -38 15 -17 15 -22 -1 -68 -22 -62 -11 -82 47 -82 22 0 39 -2 39 -5 0 -3 -22 -33 -48 -68 -63 -81 -116 -175 -152 -276 -92 -250 -90 -646 4 -877 75 -184 203 -309 366 -355 25 -7 74 -34 108 -59 118 -87 305 -131 406 -97 26 9 66 29 90 45 37 25 56 30 138 36 52 4 137 16 188 26 76 16 102 17 144 8 29 -6 86 -8 136 -4 l86 6 33 -34 c18 -19 61 -47 95 -63 52 -24 73 -28 141 -27 85 1 171 22 245 59 25 12 68 27 96 33 174 37 353 148 434 269 53 77 98 178 121 265 33 124 31 335 -5 516 -32 159 -92 345 -148 455 -47 94 -124 210 -168 252 -16 16 -30 34 -30 41 0 6 21 17 48 24 61 17 76 34 58 69 -8 14 -26 37 -40 50 -32 30 -33 41 -2 41 35 0 59 26 46 50 -17 31 -91 83 -144 102 -61 20 -61 19 -11 148 64 168 86 275 92 456 8 242 -17 323 -113 360 -39 15 -54 16 -100 6 -146 -30 -371 -188 -649 -456 l-110 -105 -50 18 c-98 36 -124 36 -301 -6 -19 -4 -24 5 -49 79 -33 102 -102 249 -148 320 -98 147 -217 212 -318 175z m148 -86 c21 -15 56 -48 77 -72 49 -57 146 -257 187 -384 18 -55 38 -105 46 -111 10 -9 28 -5 76 14 82 33 178 40 245 18 28 -10 56 -24 62 -32 7 -7 19 -14 28 -14 9 0 77 60 151 133 291 285 524 446 648 447 34 0 46 -5 67 -30 31 -38 41 -95 40 -235 -1 -170 -34 -324 -112 -522 -31 -81 -39 -93 -60 -93 -34 0 -62 -18 -62 -40 0 -27 16 -34 74 -31 30 1 79 -7 116 -18 76 -24 73 -24 65 -11 -4 6 5 5 19 -2 29 -13 34 -39 11 -58 -8 -7 -15 -19 -15 -26 0 -20 -21 -17 -50 6 l-25 20 25 20 25 20 -36 0 c-64 0 -82 -50 -26 -73 18 -8 48 -29 66 -48 l34 -33 -43 -18 -42 -18 -52 44 c-136 116 -338 214 -545 263 -147 35 -444 44 -606 18 -371 -58 -694 -209 -938 -439 -21 -19 -39 -26 -68 -26 -57 0 -49 28 18 60 29 14 55 31 58 38 9 25 -7 42 -42 42 -32 0 -34 -2 -22 -16 12 -14 9 -20 -16 -40 -38 -30 -51 -30 -59 0 -8 32 0 51 31 71 14 10 22 12 19 6 -12 -19 5 -12 68 28 34 21 89 52 124 70 69 35 82 64 37 81 l-25 10 0 137 c0 398 66 670 191 795 85 85 164 101 236 49z m1527 -897 c9 -23 -3 -36 -27 -28 -32 9 -33 13 -11 29 25 19 31 18 38 -1z m-649 -35 c469 -70 811 -348 969 -789 38 -105 82 -289 97 -405 14 -116 7 -294 -16 -380 -39 -145 -133 -280 -251 -361 -36 -25 -51 -40 -41 -42 9 -2 26 2 39 9 23 11 23 11 3 -8 -39 -37 -226 -111 -256 -101 -6 2 25 29 68 60 43 31 97 75 121 98 23 23 42 38 42 32 0 -5 -7 -15 -16 -22 -8 -8 -20 -22 -25 -32 -9 -17 -8 -18 8 -10 35 20 133 118 133 135 0 9 -9 21 -20 27 -18 10 -32 1 -111 -72 -117 -107 -193 -160 -304 -213 -189 -90 -320 -82 -426 27 -51 53 -69 92 -69 156 0 133 165 305 428 443 91 49 107 62 99 83 -12 30 -37 29 -100 -4 -208 -109 -406 -278 -461 -392 -35 -72 -44 -159 -23 -210 8 -20 13 -39 9 -42 -10 -10 -148 -6 -180 5 -24 8 -51 6 -124 -10 -51 -10 -124 -23 -161 -26 l-69 -8 18 34 c26 48 24 158 -4 222 -57 128 -207 292 -391 430 -57 42 -107 77 -112 77 -15 0 -38 -31 -33 -44 3 -8 47 -44 97 -82 190 -141 346 -315 383 -426 31 -95 1 -183 -84 -242 -181 -125 -408 -37 -649 251 -47 57 -89 103 -93 103 -11 0 -40 -29 -40 -40 0 -11 70 -98 103 -129 l26 -23 -6 23 c-4 18 10 9 61 -41 36 -36 66 -68 66 -72 0 -14 -29 -8 -92 17 -67 27 -115 61 -104 72 4 4 10 3 14 -2 4 -6 14 -10 22 -11 9 -1 -18 33 -60 75 -142 142 -200 322 -200 613 0 294 66 500 225 704 81 103 162 176 294 265 347 234 793 338 1196 278z m-1311 -100 c-22 -25 -36 -14 -22 16 9 20 14 22 25 13 11 -9 11 -14 -3 -29z m2044 -178 c6 -1 12 -7 12 -15 0 -25 -25 -25 -49 0 l-23 24 23 -4 c13 -3 30 -5 37 -5z m-2169 -157 c-40 -43 -54 -46 -66 -15 -10 28 -10 28 30 28 23 0 43 6 45 12 2 7 7 10 10 7 3 -4 -5 -18 -19 -32z m1381 -1622 c-31 -5 -47 13 -29 34 12 15 15 14 32 -7 19 -24 19 -24 -3 -27z m-606 -33 c-22 -4 -41 -5 -43 -3 -3 2 6 16 20 30 l24 25 19 -23 18 -23 -38 -6z"/>
<path d="M1290 2578 c0 -23 75 -104 114 -122 42 -20 108 -21 145 -1 29 15 111 101 111 116 0 17 -11 9 -63 -45 -89 -91 -157 -89 -249 6 -32 33 -58 54 -58 46z"/>
<path d="M1152 1738 c-20 -20 -14 -31 58 -96 79 -71 117 -129 128 -193 8 -49 31 -62 62 -34 18 16 19 15 26 -19 8 -45 -1 -94 -22 -117 -18 -20 -13 -46 11 -55 36 -14 204 106 220 157 5 16 12 19 34 14 25 -5 35 2 86 57 66 71 128 190 123 235 -3 24 -8 28 -33 28 -26 0 -30 -4 -36 -36 -7 -43 -40 -110 -82 -163 l-30 -38 -19 36 c-30 58 -78 44 -78 -24 0 -19 -10 -51 -21 -70 -24 -40 -69 -90 -81 -90 -4 0 -8 21 -9 48 -1 74 -22 154 -42 166 -15 9 -22 7 -37 -11 -22 -28 -30 -29 -30 -4 0 29 -80 132 -140 179 -56 45 -69 49 -88 30z m296 -269 c9 -36 8 -40 -6 -34 -10 4 -26 10 -37 13 -42 11 -47 49 -7 55 15 2 30 5 33 6 4 0 11 -17 17 -40z m242 -24 c-6 -7 -24 -15 -40 -17 -27 -4 -29 -2 -24 21 12 53 12 54 44 31 23 -17 28 -25 20 -35z m-201 -129 c10 -12 8 -17 -8 -25 -27 -15 -29 -14 -23 14 5 28 14 31 31 11z"/>
<path d="M1008 1694 c-80 -19 -128 -45 -187 -103 -92 -89 -146 -247 -150 -432 -2 -79 13 -178 25 -166 2 2 6 78 8 168 2 132 7 176 23 226 28 84 63 141 116 190 58 53 110 80 197 99 39 9 70 20 70 25 0 12 -34 10 -102 -7z"/>
<path d="M1914 1662 c3 -6 32 -18 64 -27 254 -74 358 -295 286 -613 -18 -80 -18 -90 1 -72 34 35 57 291 34 389 -27 120 -119 234 -232 289 -64 32 -166 54 -153 34z"/>
<path d="M635 774 c-52 -26 -82 -50 -115 -91 -63 -79 -105 -178 -93 -224 4 -15 12 -3 28 50 28 89 63 148 114 194 49 44 79 60 154 82 31 9 57 18 57 21 0 2 -17 4 -37 4 -23 0 -65 -14 -108 -36z"/>
<path d="M2220 786 c0 -2 29 -18 65 -35 110 -55 180 -146 206 -269 17 -84 19 -89 28 -73 7 11 4 36 -13 117 -17 83 -120 209 -199 244 -37 17 -87 26 -87 16z"/>
<path d="M889 519 c-145 -22 -233 -145 -138 -194 34 -18 107 -19 162 -3 58 17 127 86 127 125 0 56 -62 85 -151 72z m99 -35 c45 -31 19 -87 -58 -127 -69 -36 -171 -31 -186 8 -30 76 168 173 244 119z"/>
<path d="M1933 515 c-57 -41 -10 -141 90 -189 107 -51 197 -31 197 44 0 37 -56 103 -114 132 -54 28 -144 35 -173 13z m158 -36 c47 -23 99 -78 99 -103 0 -39 -17 -51 -67 -51 -57 0 -129 38 -167 88 -60 78 26 120 135 66z"/>
<path d="M1814 405 c-28 -28 -31 -60 -7 -74 23 -12 51 3 63 35 20 51 -17 77 -56 39z"/>
<path d="M1070 410 c-19 -12 -15 -60 8 -82 26 -26 52 -17 52 17 0 49 -31 83 -60 65z"/>
<path d="M1893 308 c-31 -40 -19 -92 20 -86 29 4 52 51 37 78 -12 22 -43 27 -57 8z"/>
<path d="M974 284 c-10 -38 10 -74 41 -74 30 0 43 38 26 76 -15 34 -58 33 -67 -2z"/>
<path d="M701 268 c-15 -42 18 -88 53 -75 19 8 22 67 4 85 -19 19 -48 14 -57 -10z"/>
<path d="M850 250 c-12 -23 -6 -53 16 -75 21 -21 54 -2 54 31 0 58 -47 87 -70 44z"/>
<path d="M2017 252 c-21 -23 -22 -78 -2 -86 24 -9 42 3 56 36 21 51 -19 89 -54 50z"/>
<path d="M2147 252 c-9 -10 -17 -33 -17 -50 0 -27 4 -32 24 -32 32 0 48 22 44 62 -4 39 -26 48 -51 20z"/>
<path d="M214 342 c24 -47 90 -98 178 -140 82 -40 188 -76 196 -68 5 5 -104 56 -119 56 -31 0 -172 87 -214 131 -52 56 -62 61 -41 21z"/>
<path d="M1030 52 c0 -20 135 -27 490 -26 239 0 363 4 380 12 25 11 24 11 -10 13 -19 1 -69 0 -110 -2 -130 -7 -480 -4 -617 5 -93 6 -133 6 -133 -2z"/>
</g>
</svg>